<svg width="28" height="29" viewBox="0 0 28 29" fill="none" xmlns="http://www.w3.org/2000/svg">
<path d="M16.1 6.17139C16.1 5.61443 15.8788 5.08029 15.4849 4.68646C15.0911 4.29264 14.557 4.07139 14 4.07139C13.443 4.07139 12.9089 4.29264 12.5151 4.68646C12.1212 5.08029 11.9 5.61443 11.9 6.17139H10.5C10.5 5.24313 10.8687 4.35289 11.5251 3.69651C12.1815 3.04014 13.0717 2.67139 14 2.67139C14.9283 2.67139 15.8185 3.04014 16.4749 3.69651C17.1313 4.35289 17.5 5.24313 17.5 6.17139H23.8C23.9857 6.17139 24.1637 6.24514 24.295 6.37641C24.4263 6.50769 24.5 6.68573 24.5 6.87139C24.5 7.05704 24.4263 7.23509 24.295 7.36636C24.1637 7.49764 23.9857 7.57139 23.8 7.57139H23.0244L21.21 23.2934C21.131 23.9757 20.8039 24.6052 20.291 25.0622C19.7781 25.5191 19.1151 25.7715 18.4282 25.7714H9.5718C8.88489 25.7715 8.22191 25.5191 7.70898 25.0622C7.19606 24.6052 6.86899 23.9757 6.79 23.2934L4.9742 7.57139H4.2C4.03616 7.57144 3.8775 7.51403 3.75164 7.40914C3.62578 7.30426 3.54069 7.15855 3.5112 6.99739L3.5 6.87139C3.5 6.68573 3.57375 6.50769 3.70503 6.37641C3.8363 6.24514 4.01435 6.17139 4.2 6.17139H16.1ZM21.6132 7.57139H6.3854L8.1802 23.1324C8.21971 23.4737 8.38335 23.7885 8.63995 24.017C8.89656 24.2455 9.22822 24.3716 9.5718 24.3714H18.4282C18.7715 24.3713 19.1029 24.245 19.3592 24.0165C19.6155 23.7881 19.7789 23.4734 19.8184 23.1324L21.6132 7.57139ZM11.9 11.0714C12.243 11.0714 12.53 11.2884 12.5888 11.574L12.6 11.6846V20.2596C12.6 20.597 12.2864 20.8714 11.9 20.8714C11.557 20.8714 11.27 20.6544 11.2112 20.3688L11.2 20.2582V11.686C11.2 11.3472 11.5136 11.0728 11.9 11.0728V11.0714ZM16.1 11.0714C16.443 11.0714 16.73 11.2884 16.7888 11.574L16.8 11.6846V20.2596C16.8 20.597 16.4864 20.8714 16.1 20.8714C15.757 20.8714 15.47 20.6544 15.4112 20.3688L15.4 20.2582V11.686C15.4 11.3472 15.7136 11.0728 16.1 11.0728V11.0714Z" fill="white"/>
</svg>
